<svg xmlns="http://www.w3.org/2000/svg" xmlns:xlink="http://www.w3.org/1999/xlink" width="20" zoomAndPan="magnify" viewBox="0 0 375 374.999991" height="20" preserveAspectRatio="xMidYMid meet" version="1.0"><path fill="#fdfdfd" d="M 374.96875 187.484375 C 374.871094 290.664062 291.585938 375 187.390625 374.9375 C 83.890625 374.871094 0.03125 291.332031 0.0625 187.390625 C 0.09375 83.320312 84.304688 0.0625 187.546875 0.03125 C 291.011719 0 374.96875 84.019531 374.96875 187.484375 Z M 219.898438 228.539062 C 219.898438 205.4375 219.863281 182.367188 219.929688 159.265625 C 219.960938 150.527344 216.847656 143.125 210.394531 137.371094 C 200.226562 128.285156 188.40625 126.378906 175.726562 130.859375 C 163.621094 135.148438 155.515625 146.777344 155.578125 159.933594 C 155.835938 205.945312 155.707031 251.960938 155.644531 297.972656 C 155.644531 323.964844 177.917969 328.351562 188.566406 328.320312 C 204.582031 328.257812 220.308594 315.355469 219.992188 296.828125 C 219.578125 274.078125 219.898438 251.292969 219.898438 228.539062 Z M 222.089844 80.902344 C 222.058594 61.710938 206.742188 46.425781 187.515625 46.425781 C 168.257812 46.425781 152.878906 61.839844 152.910156 81.09375 C 152.941406 100.128906 168.480469 115.636719 187.546875 115.636719 C 206.742188 115.636719 222.089844 100.191406 222.089844 80.902344 Z M 222.089844 80.902344 " fill-opacity="1" fill-rule="nonzero"/></svg>